<?xml version="1.0" encoding="utf-8"?>
<!-- Generator: Adobe Illustrator 16.0.0, SVG Export Plug-In . SVG Version: 6.00 Build 0)  -->
<!DOCTYPE svg PUBLIC "-//W3C//DTD SVG 1.1//EN" "http://www.w3.org/Graphics/SVG/1.1/DTD/svg11.dtd">
<svg version="1.1" id="Layer_1" xmlns="http://www.w3.org/2000/svg" xmlns:xlink="http://www.w3.org/1999/xlink" x="0px" y="0px"
	 width="102px" height="46px" viewBox="0 0 102 46" enable-background="new 0 0 102 46" xml:space="preserve">
<g>
	<g>
		<path fill="#06A4DE" d="M72.588,18.108H58.891c-1.174,0-1.957-0.783-1.957-1.956v-3.914c0-1.173,0.783-1.956,1.957-1.956h16.826
			c1.174,0,1.957-0.783,1.957-1.957V2.457c0-1.174-0.783-1.957-1.957-1.957H58.891c-6.652,0-11.739,5.478-11.739,11.739v3.914
			c0,6.652,5.086,11.738,11.739,11.738h13.697c1.173,0,1.955,0.783,1.955,1.957v3.914c0,1.173-0.782,1.955-1.955,1.955H45.979
			c-4.305,0-7.044-0.391-11.35-4.695L5.281,1.674C4.499,0.892,3.716,0.5,2.543,0.5H2.152c-1.173,0-1.957,0.783-1.957,1.957v41.086
			c0,1.174,0.784,1.957,1.957,1.957H8.02c1.175,0,1.958-0.783,1.958-1.957V23.587c0-1.957,1.173-2.348,2.347-1.174l16.827,16.825
			c4.304,4.696,8.218,6.262,14.477,6.262h28.959c6.259,0,11.738-5.087,11.738-11.738v-3.914
			C84.326,23.587,78.847,18.108,72.588,18.108z"/>
		<path fill="#06A4DE" d="M39.325,2.457c0-1.174-0.782-1.957-1.956-1.957h-5.871c-1.174,0-1.956,0.783-1.956,1.957v12.521
			c0,1.174,0.391,1.957,1.174,2.739l6.262,6.261c1.173,1.174,2.347,0.784,2.347-1.174V2.457z"/>
	</g>
	<path fill="#82C341" d="M84.11,2.457v5.869c0,1.174,0.783,1.957,1.956,1.957h3.914c1.174,0,1.957,0.783,1.957,1.956v31.304
		c0,1.174,0.782,1.957,1.956,1.957h5.87c1.174,0,1.956-0.783,1.956-1.957V2.457c0-1.174-0.782-1.957-1.956-1.957H86.066
		C84.894,0.5,84.11,1.283,84.11,2.457z"/>
</g>
</svg>
