<?xml version="1.0" encoding="UTF-8"?>
<svg width="68px" height="68px" viewBox="0 0 68 68" version="1.1" xmlns="http://www.w3.org/2000/svg" xmlns:xlink="http://www.w3.org/1999/xlink">
    <title>F4BF5CD7-05F4-48A0-9C3C-0EABE89717C4</title>
    <g id="icons" stroke="none" stroke-width="1" fill="none" fill-rule="evenodd">
        <g transform="translate(-23.000000, -25.000000)" fill="#FFA35D" id="wordpress-copy">
            <g transform="translate(23.000000, 25.000000)">
                <rect id="Rectangle" opacity="0.100000001" x="0" y="0" width="68" height="68" rx="34"></rect>
                <g id="icon-wordpress" transform="translate(20.000000, 20.000000)" fill-rule="nonzero">
                    <path d="M26.8704883,0 L1.07006369,0 C0.475583864,0 0,0.47761194 0,1.07462687 L0,6.92537313 C0,7.52238806 0.475583864,8 1.07006369,8 L26.9299363,8 C27.5244161,8 28,7.52238806 28,6.92537313 L28,1.07462687 C27.940552,0.47761194 27.4649682,0 26.8704883,0 Z M6.0625,5 L2.9375,5 C2.375,5 2,4.53333333 2,4 C2,3.46666667 2.4375,3 2.9375,3 L6.0625,3 C6.5625,3 7,3.46666667 7,4 C7,4.53333333 6.5625,5 6.0625,5 Z M25.0804598,5 L10.9195402,5 C10.4291188,5 10,4.53333333 10,4 C10,3.46666667 10.4291188,3 10.9195402,3 L25.0804598,3 C25.5708812,3 26,3.46666667 26,4 C26,4.53333333 25.5708812,5 25.0804598,5 Z" id="Shape"></path>
                    <path d="M26.8704883,10 L1.07006369,10 C0.475583864,10 0,10.4690554 0,11.0553746 L0,26.9446254 C0,27.5309446 0.475583864,28 1.07006369,28 L26.9299363,28 C27.5244161,28 28,27.5309446 28,26.9446254 L28,11.0553746 C27.940552,10.4690554 27.4649682,10 26.8704883,10 Z M19.0153846,20 L8.92307692,20 C8.43076923,20 8,19.5333333 8,19 C8,18.4666667 8.43076923,18 8.92307692,18 L19.0769231,18 C19.5692308,18 20,18.4666667 20,19 C20,19.5333333 19.5692308,20 19.0153846,20 Z" id="Shape" opacity="0.400000006"></path>
                </g>
            </g>
        </g>
    </g>
</svg>